<svg xmlns="http://www.w3.org/2000/svg" version="1.0" width="744.000000pt" height="745.000000pt" viewBox="0 0 744.000000 745.000000" preserveAspectRatio="xMidYMid meet">

<g transform="translate(0.000000,745.000000) scale(0.100000,-0.100000)" fill="#000000" stroke="none">
<path d="M3408 7130 c-80 -14 -171 -48 -230 -88 -66 -43 -902 -853 -954 -923 -187 -254 -258 -838 -158 -1288 79 -354 262 -707 529 -1021 96 -112 326 -336 445 -432 168 -135 402 -294 605 -412 l31 -18 117 71 c798 482 1306 1082 1477 1745 109 424 66 989 -98 1286 -46 83 -150 188 -223 224 -154 74 -350 51 -492 -57 -26 -21 -49 -37 -50 -37 -2 0 -36 36 -75 79 -68 75 -71 81 -60 105 11 25 14 26 110 26 101 0 108 -3 88 -41 -10 -17 -7 -19 30 -19 l41 0 66 138 c36 75 73 156 84 179 l18 42 -149 106 -149 105 -131 0 c-152 0 -160 2 -290 90 -116 78 -197 116 -286 135 -73 16 -218 18 -296 5z m304 -86 c73 -17 132 -47 263 -133 121 -80 158 -91 312 -91 l106 0 108 -76 c60 -42 109 -80 109 -84 0 -4 -20 -51 -45 -104 l-44 -96 -105 0 c-58 0 -117 5 -133 11 -42 16 -82 58 -89 96 -4 23 -12 33 -25 33 -37 0 -20 -92 27 -141 l24 -26 -24 -55 -25 -56 70 -76 71 -76 -50 0 c-48 0 -54 3 -144 80 -59 50 -102 80 -116 80 -22 0 -21 -3 20 -51 23 -28 53 -64 66 -80 l23 -29 -133 0 -133 0 -80 80 c-75 76 -82 80 -123 80 -41 0 -44 2 -38 23 32 111 26 201 -19 293 -34 69 -119 147 -190 173 -65 25 -145 28 -145 7 0 -16 21 -26 54 -26 39 0 144 -59 181 -102 94 -111 99 -266 11 -388 l-36 -50 95 0 95 0 40 -36 c22 -20 40 -40 40 -45 0 -5 -173 -9 -395 -9 l-395 0 0 150 0 150 -125 0 c-69 0 -124 3 -124 8 3 15 496 486 534 508 125 74 324 98 487 58z m-852 -774 c0 -126 -2 -136 -44 -276 -51 -166 -79 -219 -133 -257 -55 -38 -90 -49 -158 -50 -102 -1 -187 52 -238 147 -30 58 -31 174 0 231 12 22 88 106 170 188 l150 147 126 0 127 0 0 -130z m2054 -64 c168 -82 277 -297 320 -634 59 -449 3 -795 -189 -1187 -235 -479 -633 -890 -1213 -1252 l-155 -97 -41 24 c-22 12 -97 59 -165 102 -733 467 -1211 1082 -1340 1723 -54 269 -44 628 25 890 9 33 19 70 21 83 5 19 11 12 38 -43 32 -66 32 -68 19 -128 -21 -104 -38 -267 -28 -277 5 -5 111 -56 237 -115 l227 -106 25 28 c13 15 24 30 24 33 0 3 -62 86 -138 185 -76 99 -138 180 -137 180 0 0 35 -1 76 -3 l75 -4 95 -159 c71 -120 99 -158 110 -153 8 4 25 9 38 11 12 3 22 13 22 22 0 9 -7 116 -15 239 l-14 223 30 97 c17 53 38 122 48 152 l18 55 758 3 758 2 42 39 c83 76 156 102 281 98 75 -2 100 -7 148 -31z"/>
<path d="M3480 6975 c0 -16 17 -21 95 -29 78 -7 157 -42 252 -110 49 -34 100 -71 116 -80 l27 -18 0 45 0 45 -102 61 c-126 76 -203 101 -309 101 -63 0 -79 -3 -79 -15z"/>
<path d="M4150 6710 c0 -42 3 -50 18 -50 11 0 24 11 30 24 6 13 20 27 31 31 12 3 21 15 21 26 0 16 -7 19 -50 19 l-50 0 0 -50z"/>
<path d="M4383 6713 c-19 -7 -16 -60 3 -67 27 -11 43 -7 54 14 21 38 -14 71 -57 53z"/> 
<path d="M2696 6268 c-243 -384 -245 -388 -228 -397 14 -8 41 24 162 189 154 210 178 260 126 260 -21 0 -33 -11 -60 -52z"/>
<path d="M4698 6140 c-64 -11 -143 -56 -179 -102 l-31 -38 -421 -2 -422 -3 -282 -368 c-156 -203 -283 -372 -283 -375 1 -4 12 -20 25 -36 l24 -30 193 88 c106 49 198 90 204 93 8 3 6 -19 -5 -68 l-16 -72 -135 -44 c-74 -23 -152 -48 -174 -54 -38 -10 -38 -11 -32 -50 4 -25 2 -39 -5 -39 -6 0 -43 15 -82 33 -67 30 -79 32 -182 32 -103 -1 -115 -3 -178 -33 -38 -18 -74 -32 -79 -32 -7 0 -8 15 -4 39 l6 39 -226 76 -227 75 6 -82 c4 -45 7 -96 7 -113 0 -30 2 -32 48 -38 27 -3 86 -22 133 -41 74 -30 95 -35 173 -35 79 0 97 4 180 38 78 32 101 37 166 36 63 0 87 -6 150 -34 71 -33 81 -34 190 -34 98 0 122 3 164 22 l48 22 -4 -31 c-5 -29 -3 -31 24 -27 27 4 29 3 26 -25 -3 -33 -4 -34 -107 -78 -69 -29 -81 -31 -165 -27 -68 3 -102 10 -134 26 -120 63 -236 65 -375 7 -120 -49 -203 -49 -320 -1 -102 42 -167 55 -167 33 0 -31 13 -47 36 -47 13 0 63 -17 111 -37 80 -34 97 -37 178 -37 82 0 98 3 180 38 84 36 94 38 175 34 71 -3 97 -9 160 -38 69 -32 83 -34 170 -34 85 0 102 3 165 31 38 17 70 31 71 30 1 -1 -5 -34 -14 -74 l-15 -72 -66 -28 c-55 -23 -79 -28 -146 -27 -69 1 -89 5 -150 35 -67 32 -75 33 -185 34 -110 0 -118 -1 -190 -35 -66 -30 -85 -34 -155 -34 -68 0 -91 5 -150 31 -38 17 -83 35 -99 39 -26 6 -28 5 -22 -12 5 -10 17 -44 27 -74 59 -170 217 -441 367 -630 208 -262 571 -572 914 -779 l86 -53 122 77 c269 171 460 323 675 539 211 212 359 413 476 647 42 84 119 267 119 284 0 10 -53 -7 -125 -38 -59 -26 -82 -31 -150 -31 -70 0 -89 4 -155 34 -72 34 -80 35 -190 35 -110 -1 -118 -2 -185 -35 -61 -30 -80 -34 -150 -34 -65 0 -92 5 -145 27 l-66 27 -27 128 c-15 71 -27 133 -27 139 0 5 14 8 30 5 35 -5 35 -14 3 112 l-14 59 103 104 c56 56 108 103 114 103 6 0 40 -22 76 -49 l65 -49 109 109 c60 60 114 109 121 109 6 0 58 -50 114 -110 91 -97 105 -109 120 -98 10 7 43 31 74 52 l56 40 159 -159 c88 -88 163 -156 167 -151 4 4 8 105 8 224 0 160 -5 247 -18 330 -46 293 -135 476 -260 536 -62 29 -115 37 -179 26z m-218 -387 c0 -9 16 -13 45 -13 53 0 57 -9 15 -33 -32 -20 -36 -31 -20 -73 14 -37 5 -42 -30 -16 -36 27 -35 27 -72 1 -35 -25 -42 -21 -28 15 15 41 13 49 -20 71 -40 27 -38 35 10 35 24 0 42 5 45 13 2 6 10 26 16 42 l11 30 14 -30 c7 -16 13 -36 14 -42z m-730 -374 c33 -179 60 -328 60 -331 0 -2 -14 -3 -30 0 -29 4 -31 3 -25 -21 4 -14 28 -127 54 -252 l47 -226 -38 6 c-21 4 -38 3 -38 -2 0 -4 23 -119 51 -256 29 -136 49 -250 46 -253 -4 -4 -50 11 -103 33 l-96 40 -100 -40 c-54 -22 -101 -37 -104 -34 -3 3 17 115 45 249 28 134 51 249 51 257 0 10 -9 12 -35 7 -21 -4 -35 -3 -35 3 0 9 82 411 95 470 6 22 4 23 -25 17 -30 -6 -31 -5 -26 22 3 15 29 149 56 297 73 391 71 383 81 360 4 -11 35 -167 69 -346z m360 234 c0 -7 19 -13 47 -15 l47 -3 -36 -24 -36 -25 14 -39 c8 -22 12 -42 10 -45 -3 -2 -20 8 -39 22 l-34 26 -33 -25 c-18 -14 -35 -23 -38 -21 -2 3 2 21 8 42 12 36 12 38 -21 65 l-34 28 43 1 c25 0 44 5 47 13 2 6 10 26 16 42 l11 30 14 -30 c7 -16 13 -35 14 -42z m736 24 c10 -29 15 -32 55 -35 l44 -3 -35 -29 c-33 -27 -34 -29 -22 -66 6 -21 10 -40 7 -42 -2 -2 -19 7 -37 21 l-34 26 -32 -26 c-18 -14 -35 -23 -37 -21 -2 2 1 21 7 42 12 37 11 39 -22 67 l-35 28 43 1 c25 0 44 5 47 13 28 78 32 80 51 24z m-1751 -1062 c48 -20 77 -24 145 -24 75 0 108 6 172 33 15 7 15 3 1 -59 -8 -36 -13 -68 -11 -70 2 -2 20 0 41 4 20 5 37 8 37 6 0 -4 -110 -517 -117 -543 -5 -22 3 -19 106 32 l111 56 0 -64 0 -65 -47 -7 c-27 -3 -86 -22 -133 -41 -114 -46 -204 -48 -303 -7 l-67 28 0 349 0 349 -22 -14 -23 -15 -3 -338 c-2 -328 -6 -365 -33 -365 -5 0 -9 161 -9 363 l1 362 37 27 c20 15 42 27 47 28 6 0 37 -11 70 -25z m1283 -6 l42 -31 0 -364 0 -364 -25 16 -25 16 0 336 c0 298 -2 337 -17 354 -9 10 -20 18 -25 18 -4 0 -8 -157 -8 -348 l0 -349 -70 -28 c-99 -40 -191 -38 -290 5 -39 17 -98 36 -131 42 l-59 10 0 63 0 64 106 -50 c59 -27 108 -48 110 -47 2 3 -85 425 -111 534 -5 20 -2 21 32 13 21 -4 39 -6 42 -3 2 2 -1 27 -7 55 -19 80 -19 80 41 57 70 -27 220 -22 287 10 58 28 58 28 108 -9z m-665 -537 c3 -4 8 -134 12 -289 l7 -283 -56 0 -56 0 0 63 c1 34 5 163 10 287 8 193 11 226 26 237 16 12 46 4 57 -15z m-143 -232 c0 -15 -7 -20 -26 -20 -14 0 -58 -14 -97 -31 -139 -61 -274 -63 -405 -4 -56 25 -61 30 -48 43 14 14 23 12 88 -14 62 -25 85 -29 163 -28 81 0 99 4 175 37 98 42 150 48 150 17z m364 -17 c81 -34 101 -38 176 -38 71 0 98 5 158 29 65 26 74 28 88 14 13 -13 9 -18 -44 -41 -133 -60 -256 -61 -395 -3 -45 19 -94 36 -107 38 -14 1 -26 11 -28 21 -6 28 50 21 152 -20z"/>
<path d="M3072 4418 c2 -26 10 -34 43 -46 50 -18 188 -20 238 -3 31 11 37 17 37 41 l0 29 -41 -14 c-59 -21 -168 -19 -229 4 l-51 20 3 -31z"/>
<path d="M3070 4216 c0 -22 7 -30 37 -42 48 -21 127 -28 197 -20 54 7 56 8 56 38 0 27 -3 30 -22 24 -80 -21 -128 -18 -245 19 -20 6 -23 4 -23 -19z"/>
<path d="M3070 4013 c0 -41 34 -55 148 -61 l92 -4 0 26 c0 25 -1 26 -67 26 -60 1 -92 8 -155 35 -15 6 -18 2 -18 -22z"/>
<path d="M4230 4428 c-57 -22 -178 -23 -227 -3 -45 19 -43 20 -43 -14 0 -25 6 -31 38 -42 78 -26 265 -8 279 27 2 7 3 21 1 31 -3 18 -5 18 -48 1z"/>
<path d="M4230 4224 c-39 -17 -146 -23 -203 -11 -38 8 -38 8 -35 -19 4 -36 47 -48 148 -41 103 8 140 23 140 59 0 32 -3 33 -50 12z"/>
<path d="M4225 4019 c-28 -10 -79 -18 -117 -19 -66 0 -68 -1 -68 -25 0 -24 2 -25 73 -25 115 0 171 21 165 62 l-3 25 -50 -18z"/>
<path d="M2976 5968 c-6 -37 -36 -563 -36 -619 0 -32 4 -37 35 -46 25 -8 37 -8 43 1 16 20 412 684 412 690 0 3 -101 6 -225 6 l-224 0 -5 -32z"/>
<path d="M4291 5034 c-19 -14 -22 -23 -18 -50 3 -19 1 -36 -4 -39 -17 -11 -9 -54 13 -69 31 -22 74 -20 98 4 23 23 25 44 7 62 -11 9 -11 19 -3 41 10 25 8 31 -13 48 -29 23 -49 24 -80 3z m49 -39 c0 -8 -4 -15 -10 -15 -5 0 -10 7 -10 15 0 8 5 15 10 15 6 0 10 -7 10 -15z m0 -81 c0 -17 -22 -14 -28 4 -2 7 3 12 12 12 9 0 16 -7 16 -16z"/>
<path d="M4800 5030 c-22 -22 -25 -37 -11 -59 6 -10 5 -22 -4 -34 -38 -54 63 -109 108 -59 18 20 23 57 8 67 -5 3 -7 20 -4 38 9 60 -54 90 -97 47z m54 -41 c-3 -5 -10 -7 -15 -3 -5 3 -7 10 -3 15 3 5 10 7 15 3 5 -3 7 -10 3 -15z m6 -69 c0 -5 -7 -10 -15 -10 -8 0 -15 5 -15 10 0 6 7 10 15 10 8 0 15 -4 15 -10z"/>
<path d="M4050 5020 c0 -11 5 -20 10 -20 6 0 10 -28 10 -65 0 -63 1 -65 25 -65 25 0 25 1 25 85 l0 85 -35 0 c-28 0 -35 -4 -35 -20z"/>
<path d="M4547 4998 c-26 -41 -32 -58 -27 -88 9 -64 116 -67 140 -4 13 32 -6 73 -37 80 -22 6 -23 8 -8 23 21 25 19 31 -13 31 -21 0 -34 -9 -55 -42z m60 -64 c8 -21 -13 -42 -28 -27 -13 13 -5 43 11 43 6 0 13 -7 17 -16z"/>
<path d="M683 2676 c-177 -57 -275 -248 -243 -473 27 -194 135 -308 316 -334 186 -26 355 63 415 219 26 69 37 232 20 311 -26 120 -100 219 -199 263 -60 27 -243 35 -309 14z m201 -60 c71 -30 103 -110 112 -281 11 -199 -23 -335 -96 -383 -29 -20 -45 -23 -90 -20 -60 4 -98 25 -124 69 -65 109 -61 480 6 565 48 60 121 80 192 50z"/>
<path d="M4535 2674 c-43 -16 -99 -64 -120 -105 -22 -42 -29 -122 -15 -180 19 -80 79 -135 200 -183 109 -44 145 -66 165 -106 43 -84 -10 -170 -104 -170 -80 0 -137 42 -206 152 -28 45 -56 60 -70 39 -5 -10 13 -243 20 -250 2 -2 19 5 37 16 30 18 36 18 68 5 105 -43 246 -34 328 22 66 44 93 102 93 196 0 135 -53 196 -231 266 -123 48 -160 83 -160 149 0 38 5 52 29 76 24 24 38 29 76 29 69 0 110 -24 167 -99 73 -97 83 -91 81 43 -1 59 -4 110 -6 113 -3 2 -16 -2 -31 -8 -20 -10 -38 -10 -77 -1 -68 16 -195 14 -244 -4z"/>
<path d="M5053 2539 c-78 -68 -103 -97 -103 -115 0 -21 4 -24 40 -24 l40 0 0 -203 c0 -190 1 -205 23 -247 29 -59 78 -84 162 -83 68 1 112 19 161 65 20 19 30 36 27 48 -4 17 -8 17 -39 4 -52 -22 -101 -18 -129 11 -25 24 -25 26 -25 215 l0 190 84 0 84 0 4 35 4 35 -88 0 -88 0 0 80 0 80 -27 -1 c-21 0 -56 -25 -130 -90z"/>
<path d="M6056 2539 c-80 -69 -106 -97 -106 -115 0 -21 4 -24 40 -24 l40 0 0 -186 c0 -207 9 -259 51 -302 52 -53 158 -62 239 -21 48 24 92 72 85 92 -6 14 -10 14 -40 1 -48 -20 -98 -18 -126 5 -24 19 -24 23 -27 215 l-3 196 85 0 c62 0 86 3 86 13 0 6 3 22 6 35 6 22 5 22 -85 22 l-91 0 0 80 c0 78 -1 80 -24 80 -17 0 -60 -30 -130 -91z"/>
<path d="M2853 2542 c-28 -4 -53 -38 -53 -70 0 -19 -4 -23 -17 -17 -10 4 -56 14 -103 22 -213 38 -357 -51 -348 -214 4 -72 25 -107 81 -138 l36 -20 -41 -20 c-56 -27 -81 -63 -80 -115 1 -54 23 -87 75 -110 26 -11 35 -19 23 -19 -11 -1 -40 -11 -64 -22 -73 -36 -93 -126 -39 -177 79 -74 329 -90 469 -30 122 52 173 198 105 299 -49 72 -107 89 -301 89 -144 0 -170 13 -132 66 12 16 27 19 108 20 146 1 230 48 259 143 17 57 4 105 -39 148 -32 33 -33 36 -12 29 14 -4 46 -10 72 -13 41 -5 50 -2 72 20 58 58 11 142 -71 129z m-211 -143 c9 -11 20 -44 23 -73 18 -145 -52 -231 -132 -162 -27 23 -28 28 -28 119 0 99 8 120 50 138 28 11 67 2 87 -22z m112 -590 c54 -43 25 -135 -52 -160 -51 -17 -160 -17 -200 0 -59 25 -78 90 -42 149 l20 32 124 0 c110 0 126 -2 150 -21z"/>
<path d="M1346 2456 c-55 -18 -102 -38 -104 -45 -2 -7 8 -30 22 -51 26 -39 26 -42 26 -230 l0 -190 -25 -12 c-14 -6 -25 -19 -25 -30 0 -17 11 -18 165 -18 151 0 165 2 174 19 10 17 5 20 -47 33 l-57 14 -3 170 -2 170 42 42 c23 23 45 42 50 42 4 0 10 -11 14 -25 9 -35 50 -65 90 -65 47 0 84 35 90 85 6 52 -12 85 -59 108 -71 36 -161 -4 -207 -92 l-19 -36 -1 73 c0 51 -4 72 -12 71 -7 -1 -58 -16 -112 -33z"/>
<path d="M1983 2480 c-90 -19 -160 -74 -204 -160 -27 -53 -38 -191 -20 -257 20 -72 69 -134 134 -167 50 -26 69 -30 135 -29 98 1 150 22 202 81 44 49 46 55 27 70 -10 8 -26 5 -62 -13 -57 -30 -130 -33 -181 -9 -42 20 -80 82 -89 147 l-7 47 176 0 176 0 6 26 c15 60 -18 176 -63 216 -46 42 -152 64 -230 48z m113 -81 c12 -14 19 -40 22 -85 l4 -64 -96 0 -96 0 0 30 c0 39 22 92 49 119 28 28 91 29 117 0z"/>
<path d="M3123 2480 c-99 -21 -181 -93 -208 -184 -8 -27 -15 -82 -15 -121 0 -93 21 -161 66 -213 44 -52 91 -77 171 -92 115 -20 245 18 304 89 102 124 83 376 -34 465 -65 50 -193 75 -284 56z m151 -90 c33 -40 41 -82 41 -215 0 -133 -8 -175 -41 -215 -21 -24 -34 -30 -66 -30 -96 0 -113 37 -113 245 0 208 16 244 112 245 34 0 46 -5 67 -30z"/>
<path d="M3626 2454 c-54 -18 -101 -36 -103 -38 -3 -3 9 -25 26 -50 l31 -45 0 -191 0 -190 -25 -12 c-14 -6 -25 -19 -25 -30 0 -17 11 -18 149 -18 127 0 150 2 155 16 9 23 9 22 -34 35 l-40 12 0 189 0 189 43 19 c52 24 85 25 116 4 42 -30 51 -71 51 -242 l0 -160 -30 -12 c-18 -8 -30 -20 -30 -31 0 -18 10 -19 150 -19 135 0 150 2 159 19 9 16 5 20 -28 30 l-39 11 -4 203 c-5 219 -10 242 -61 295 -74 76 -213 61 -295 -33 l-32 -36 0 61 c0 72 3 72 -134 24z"/>
<path d="M5622 2480 c-53 -11 -132 -54 -166 -89 -22 -23 -24 -30 -13 -45 11 -16 15 -16 49 -2 59 25 138 31 180 13 46 -19 66 -50 75 -112 l6 -48 -49 6 c-27 4 -75 3 -108 -3 -121 -20 -176 -72 -176 -167 0 -111 56 -167 165 -166 68 1 112 19 143 58 l20 25 20 -34 c34 -58 111 -69 205 -29 48 21 51 50 5 55 -51 5 -58 29 -58 221 0 174 -8 216 -48 260 -45 50 -160 76 -250 57z m128 -411 c0 -84 -11 -98 -77 -99 -57 0 -83 25 -83 80 0 62 33 90 105 90 l55 0 0 -71z"/>
<path d="M6630 2480 c-60 -13 -127 -56 -167 -108 -83 -108 -84 -298 -4 -409 93 -129 348 -130 436 -3 22 32 25 43 15 55 -10 13 -18 11 -58 -10 -54 -29 -136 -34 -181 -10 -44 22 -78 70 -90 125 -6 28 -11 55 -11 60 0 6 77 11 178 12 l177 3 3 45 c7 96 -35 183 -108 220 -46 24 -129 32 -190 20z m116 -81 c12 -14 19 -40 22 -85 l4 -64 -96 0 c-93 0 -96 1 -96 23 0 40 20 94 45 121 31 33 92 36 121 5z"/>
<path d="M2755 1495 c-54 -53 -16 -145 60 -145 49 0 85 36 85 85 0 49 -36 85 -85 85 -25 0 -44 -8 -60 -25z"/>
<path d="M4985 1495 c-54 -53 -16 -145 60 -145 49 0 85 36 85 85 0 49 -36 85 -85 85 -25 0 -44 -8 -60 -25z"/>
<path d="M1247 1443 c-20 -19 -4 -40 41 -54 l47 -15 5 -279 5 -280 29 -53 c38 -67 95 -106 182 -122 134 -25 261 7 330 82 67 74 68 84 74 383 l5 269 48 15 c39 12 47 19 45 35 -3 20 -10 21 -140 24 l-138 3 0 -24 c0 -19 8 -26 48 -38 l47 -15 3 -219 c3 -238 -6 -310 -42 -366 -62 -93 -242 -106 -316 -23 -46 53 -51 89 -48 360 l3 247 45 15 c55 18 53 16 45 41 -6 20 -13 21 -159 21 -84 0 -156 -3 -159 -7z"/>
<path d="M5246 1313 c-47 -54 -86 -105 -86 -115 0 -12 10 -18 38 -20 l37 -3 5 -230 c4 -207 7 -233 25 -259 47 -71 196 -76 275 -10 37 32 42 70 8 59 -13 -4 -50 -9 -83 -12 -53 -4 -62 -2 -80 17 -19 21 -20 36 -20 229 l0 206 75 3 c41 2 85 1 97 -3 18 -4 40 -52 127 -272 58 -146 106 -273 106 -281 0 -46 -108 -212 -138 -212 -4 0 -7 18 -7 41 0 48 -22 69 -72 69 -46 0 -73 -30 -73 -79 0 -74 88 -114 177 -80 46 17 102 79 140 154 20 39 85 202 145 364 59 162 109 295 110 296 2 0 15 6 31 13 17 7 27 19 27 32 0 19 -6 20 -116 20 -113 0 -115 -1 -112 -22 2 -14 14 -25 35 -32 17 -6 34 -14 38 -18 4 -3 -16 -77 -44 -163 -28 -87 -56 -177 -62 -201 -7 -25 -13 -43 -15 -41 -3 2 -11 30 -19 62 -9 32 -40 123 -70 203 -30 80 -54 146 -53 148 2 1 19 6 38 11 25 7 36 16 38 31 3 21 0 22 -105 24 -59 1 -152 0 -205 -1 l-98 -3 0 86 c0 66 -3 86 -14 86 -7 0 -52 -44 -100 -97z"/>
<path d="M2113 1226 c-46 -17 -83 -36 -83 -42 0 -5 16 -25 35 -44 l35 -34 -2 -200 -3 -200 -32 -10 c-25 -7 -33 -14 -33 -32 l0 -24 133 0 c132 0 134 0 145 24 10 23 9 25 -39 36 l-49 12 0 194 0 194 43 22 c59 31 139 31 169 0 22 -22 23 -28 23 -219 l0 -197 -33 -10 c-25 -7 -32 -14 -30 -30 3 -20 10 -21 134 -24 130 -3 131 -2 142 22 10 23 9 25 -39 36 l-49 12 0 207 c0 195 -1 209 -22 251 -32 62 -93 94 -163 85 -57 -7 -124 -42 -154 -81 l-21 -27 0 57 c0 39 -4 56 -12 55 -7 -1 -50 -15 -95 -33z"/>
<path d="M2773 1227 c-46 -17 -83 -36 -83 -42 1 -5 14 -26 30 -45 l30 -34 0 -202 0 -202 -30 -7 c-23 -5 -30 -12 -30 -31 l0 -24 130 0 c118 0 130 2 140 19 14 28 15 27 -35 40 l-45 11 0 275 c0 214 -3 275 -12 274 -7 0 -50 -15 -95 -32z"/>
<path d="M3715 1250 c-90 -22 -157 -78 -197 -165 -19 -41 -23 -67 -23 -150 0 -110 16 -159 70 -223 75 -89 243 -109 345 -40 48 33 77 75 62 90 -9 9 -22 7 -56 -9 -155 -76 -282 -8 -302 161 l-7 56 186 0 187 0 6 26 c8 30 -3 119 -18 148 -44 86 -152 132 -253 106z m115 -85 c17 -18 25 -40 28 -80 l4 -55 -121 0 c-115 0 -121 1 -121 20 0 31 36 95 66 119 40 31 113 29 144 -4z"/>
<path d="M4088 1227 c-43 -17 -78 -36 -78 -43 0 -7 14 -29 30 -47 l30 -35 0 -200 0 -200 -30 -7 c-23 -5 -30 -12 -30 -31 l0 -24 143 0 c142 0 144 0 155 24 10 23 9 24 -54 36 l-64 12 0 174 0 174 48 50 c27 28 53 50 59 50 6 0 14 -11 17 -25 10 -37 65 -62 104 -46 53 22 68 91 29 136 -52 62 -164 33 -224 -59 l-33 -48 0 71 c0 51 -4 71 -12 70 -7 -1 -48 -15 -90 -32z"/>
<path d="M4614 1251 c-51 -13 -101 -49 -118 -85 -21 -44 -21 -128 0 -172 23 -48 51 -68 160 -110 101 -39 134 -67 134 -114 0 -15 -9 -39 -21 -54 -18 -23 -28 -26 -78 -26 -73 0 -115 26 -156 97 -32 56 -33 57 -54 44 -10 -7 -12 -29 -6 -104 l7 -96 29 15 c26 13 35 13 86 -2 108 -31 224 -3 271 67 21 29 23 44 20 106 -3 64 -7 76 -33 103 -36 38 -79 61 -159 86 -77 24 -116 60 -116 108 0 37 25 70 63 82 52 17 125 -23 168 -92 20 -34 55 -44 53 -16 -1 6 -2 45 -2 86 l-2 74 -57 -1 c-32 0 -80 2 -108 6 -27 3 -64 2 -81 -2z"/>
<path d="M5003 1227 c-46 -17 -83 -36 -83 -42 1 -5 14 -26 30 -45 l30 -34 0 -202 0 -202 -30 -7 c-23 -5 -30 -12 -30 -31 l0 -24 128 0 c126 0 152 6 152 36 0 6 -20 17 -45 24 l-45 13 0 273 c0 213 -3 274 -12 273 -7 0 -50 -15 -95 -32z"/>
<path d="M2920 1221 c0 -11 12 -27 28 -36 23 -14 46 -60 137 -281 l110 -265 35 3 35 3 101 260 c91 232 105 262 133 278 17 11 31 27 31 38 0 18 -8 19 -114 19 -104 0 -114 -2 -119 -20 -4 -15 3 -22 32 -31 20 -6 40 -15 44 -19 4 -3 -15 -69 -42 -146 -27 -76 -56 -160 -63 -186 -6 -27 -15 -48 -18 -48 -4 0 -12 21 -18 48 -7 26 -39 113 -71 194 l-58 146 44 11 c33 9 44 16 41 29 -3 15 -20 17 -136 20 -126 2 -132 2 -132 -17z"/>
</g>
</svg>