<!--?xml version="1.0" standalone="no"?-->
              <svg id="sw-js-blob-svg" viewBox="0 0 100 100" xmlns="http://www.w3.org/2000/svg" version="1.1">
                    <defs> 
                        <linearGradient id="sw-gradient" x1="0" x2="1" y1="1" y2="0">
                            <stop id="stop1" stop-color="rgba(26.821, 172.619, 206.121, 1)" offset="0%"></stop>
                            <stop id="stop2" stop-color="rgba(152.316, 210.673, 199.804, 1)" offset="100%"></stop>
                        </linearGradient>
                    </defs>
                <path fill="url(#sw-gradient)" d="M16,-21C22.5,-17.4,30.6,-15,35.4,-9.3C40.2,-3.7,41.9,5.2,40.2,13.9C38.6,22.7,33.7,31.2,26.5,33.5C19.3,35.8,9.6,31.9,3,27.7C-3.6,23.5,-7.1,19.1,-13.3,16.5C-19.5,13.8,-28.4,13,-32.6,8.6C-36.8,4.2,-36.3,-3.7,-34.5,-11.9C-32.8,-20.1,-29.9,-28.6,-23.9,-32.4C-18,-36.1,-9,-35.2,-2.1,-32.3C4.8,-29.4,9.6,-24.6,16,-21Z" width="100%" height="100%" transform="translate(50 50)" stroke-width="0" style="transition: all 0.3s ease 0s;" stroke="url(#sw-gradient)"></path>
              </svg>